<svg width="512" height="512" viewBox="0 0 512 512" fill="none" xmlns="http://www.w3.org/2000/svg">
	<g clip-path="url(#clip0_80_283)">
		<path
			d="M494.933 38.4H85.333C75.921 38.4 68.266 46.054 68.266 55.467V72.534H51.2C41.788 72.534 34.133 80.188 34.133 89.601V106.668H17.067C7.654 106.667 0 114.321 0 123.733V456.533C0 465.945 7.654 473.6 17.067 473.6H426.667C436.079 473.6 443.734 465.946 443.734 456.533V439.466H460.8C470.212 439.466 477.867 431.812 477.867 422.399V405.332H494.934C504.346 405.332 512.001 397.678 512.001 388.265V55.465C512 46.054 504.346 38.4 494.933 38.4ZM17.067 123.733H426.667L426.676 314.368L381.893 263.185C378.642 259.464 372.293 259.464 369.042 263.185L314.975 324.975L167.799 194.159C164.565 191.275 159.701 191.275 156.467 194.159L17.067 318.071V123.733ZM426.684 431.01V456.533H17.067V340.89L162.134 211.943L310.068 343.433C311.758 344.943 314.01 345.626 316.272 345.575C318.55 345.43 320.667 344.389 322.16 342.674L375.468 281.763L426.677 340.293L426.685 430.866C426.685 430.883 426.668 430.909 426.668 430.934C426.668 430.959 426.684 430.985 426.684 431.01ZM460.8 422.4H443.733V123.733C443.733 114.321 436.079 106.666 426.666 106.666H51.2V89.6H460.8V422.4ZM494.933 388.267H477.866V89.6C477.866 80.188 470.212 72.533 460.799 72.533H85.333V55.467H494.933V388.267Z"
			fill="currentColor" />
		<path
			d="M307.2 174.933C288.375 174.933 273.067 190.242 273.067 209.066C273.067 227.89 288.375 243.2 307.2 243.2C326.025 243.2 341.333 227.891 341.333 209.067C341.333 190.243 326.025 174.933 307.2 174.933ZM307.2 226.133C297.788 226.133 290.133 218.479 290.133 209.066C290.133 199.654 297.787 191.999 307.2 191.999C316.613 191.999 324.267 199.653 324.267 209.066C324.267 218.479 316.612 226.133 307.2 226.133Z"
			fill="currentColor" />
	</g>
	<defs>
		<clipPath id="clip0_80_283">
			<rect width="512" height="512" fill="white" />
		</clipPath>
	</defs>
</svg>